<svg xmlns="http://www.w3.org/2000/svg" viewBox="0 0 64 64" role="img" aria-label="United States flag">
  <rect x="2" y="2" width="60" height="60" rx="12" fill="#b22234"/>
  <rect x="2" y="8" width="60" height="4" fill="#fff"/>
  <rect x="2" y="16" width="60" height="4" fill="#fff"/>
  <rect x="2" y="24" width="60" height="4" fill="#fff"/>
  <rect x="2" y="32" width="60" height="4" fill="#fff"/>
  <rect x="2" y="40" width="60" height="4" fill="#fff"/>
  <rect x="2" y="48" width="60" height="4" fill="#fff"/>
  <rect x="2" y="56" width="60" height="4" fill="#fff"/>
  <rect x="2" y="2" width="26" height="26" rx="8" fill="#3c3b6e"/>
  <g fill="#fff">
    <circle cx="8" cy="8" r="1.3"/>
    <circle cx="13" cy="8" r="1.3"/>
    <circle cx="18" cy="8" r="1.3"/>
    <circle cx="23" cy="8" r="1.3"/>
    <circle cx="10.5" cy="13" r="1.3"/>
    <circle cx="15.5" cy="13" r="1.3"/>
    <circle cx="20.5" cy="13" r="1.3"/>
    <circle cx="8" cy="18" r="1.3"/>
    <circle cx="13" cy="18" r="1.3"/>
    <circle cx="18" cy="18" r="1.3"/>
    <circle cx="23" cy="18" r="1.3"/>
    <circle cx="10.5" cy="23" r="1.3"/>
    <circle cx="15.5" cy="23" r="1.3"/>
    <circle cx="20.5" cy="23" r="1.3"/>
  </g>
</svg>
